<svg xmlns="http://www.w3.org/2000/svg" viewBox="0 0 1920 1080">
  <g id="firstFive">
    <path id="say" d="M839.94,385.62a23.48,23.48,0,0,0,11.83,3.57c6.53,0,9.59-3.26,9.59-7.34,0-4.29-2.55-6.63-9.18-9.08-8.87-3.16-13-8.06-13-14,0-8,6.42-14.48,17-14.48a24.65,24.65,0,0,1,12.14,3.06l-2.24,6.53A19.17,19.17,0,0,0,856,351c-5.31,0-8.27,3.06-8.27,6.73,0,4.08,3,5.92,9.39,8.37C865.65,369.4,870,373.69,870,381c0,8.67-6.73,14.79-18.46,14.79a28.14,28.14,0,0,1-13.87-3.36Zm69,9.18-.72-6.22h-.3a18.39,18.39,0,0,1-15.1,7.34c-10,0-15.1-7-15.1-14.17,0-11.94,10.61-18.47,29.68-18.36v-1c0-4.08-1.12-11.43-11.22-11.43a24.63,24.63,0,0,0-12.85,3.67l-2-5.91a30.58,30.58,0,0,1,16.22-4.39c15.1,0,18.77,10.3,18.77,20.2V383a68.63,68.63,0,0,0,.82,11.83Zm-1.33-25.19c-9.79-.21-20.91,1.53-20.91,11.12,0,5.81,3.87,8.56,8.46,8.56A12.29,12.29,0,0,0,907.06,381a9.57,9.57,0,0,0,.51-2.85Zm25.6-24.18L944,374.61c1.12,3.26,2.35,7.14,3.16,10.09h.21c.92-2.95,1.94-6.73,3.16-10.3l9.79-29h9.49l-13.47,35.19c-6.42,16.94-10.81,25.61-16.93,30.91a24.31,24.31,0,0,1-11,5.82l-2.25-7.55a23.8,23.8,0,0,0,7.86-4.39,27.33,27.33,0,0,0,7.54-10,6.37,6.37,0,0,0,.72-2.14,8,8,0,0,0-.61-2.34l-18.26-45.5Z"/>
    <path id="hello" d="M996.17,322.38h9v30.8h.21a16.6,16.6,0,0,1,6.42-6.32,18.49,18.49,0,0,1,9.18-2.55c6.63,0,17.24,4.08,17.24,21.12V394.8h-9V366.45c0-8-3-14.69-11.43-14.69a12.92,12.92,0,0,0-12,9,10.9,10.9,0,0,0-.61,4.29V394.8h-9Zm61.6,49.37c.21,12.14,8,17.14,16.94,17.14a32.63,32.63,0,0,0,13.67-2.55l1.53,6.42c-3.17,1.43-8.57,3.06-16.43,3.06-15.2,0-24.27-10-24.27-24.89s8.77-26.62,23.15-26.62c16.12,0,20.4,14.18,20.4,23.26a34.61,34.61,0,0,1-.3,4.18Zm26.32-6.43c.1-5.71-2.34-14.58-12.44-14.58-9.08,0-13.06,8.36-13.77,14.58Zm19.79-42.94h9V394.8h-9Zm24.07,0h9V394.8h-9Zm68.75,47.33c0,18.26-12.65,26.21-24.59,26.21-13.36,0-23.66-9.79-23.66-25.39,0-16.53,10.81-26.22,24.48-26.22C1187.11,344.31,1196.7,354.61,1196.7,369.71Zm-39.17.51c0,10.81,6.22,19,15,19,8.57,0,15-8.06,15-19.17,0-8.37-4.19-19-14.79-19S1157.53,360.83,1157.53,370.22Z"/>
    <path id="to" d="M1241,331.25v14.18h12.85v6.84H1241v26.62c0,6.12,1.73,9.59,6.73,9.59a20.2,20.2,0,0,0,5.2-.61l.41,6.73a22.05,22.05,0,0,1-8,1.22c-4.19,0-7.55-1.32-9.7-3.77-2.55-2.65-3.46-7-3.46-12.85V352.27h-7.65v-6.84h7.65V333.6Zm67,38.46c0,18.26-12.64,26.21-24.58,26.21-13.36,0-23.66-9.79-23.66-25.39,0-16.53,10.81-26.22,24.48-26.22C1298.41,344.31,1308,354.61,1308,369.71Zm-39.17.51c0,10.81,6.23,19,15,19,8.57,0,15-8.06,15-19.17,0-8.37-4.18-19-14.79-19S1268.82,360.83,1268.82,370.22Z"/>
    <path id="mylittle" d="M1101.66,441.78c0-4.2-.09-7.65-.34-11h6.47l.33,6.56h.26c2.26-3.87,6-7.48,12.76-7.48a12,12,0,0,1,11.51,8.15h.17a16.73,16.73,0,0,1,4.54-5.29,13.84,13.84,0,0,1,9-2.86c5.38,0,13.36,3.53,13.36,17.64v23.94h-7.23v-23c0-7.81-2.85-12.51-8.81-12.51-4.2,0-7.48,3.11-8.74,6.72a12,12,0,0,0-.59,3.69v25.12h-7.22V447.07c0-6.47-2.86-11.17-8.49-11.17-4.62,0-8,3.69-9.15,7.39a10.17,10.17,0,0,0-.59,3.61v24.53h-7.22Zm71.65-11,8.9,24c.93,2.69,1.93,5.88,2.61,8.31h.16c.76-2.43,1.6-5.54,2.61-8.48l8.06-23.86h7.81l-11.08,29c-5.3,13.95-8.91,21.09-14,25.46a19.93,19.93,0,0,1-9.07,4.78l-1.85-6.21a19.67,19.67,0,0,0,6.47-3.61,22.44,22.44,0,0,0,6.22-8.24,5.41,5.41,0,0,0,.59-1.76,6.35,6.35,0,0,0-.51-1.93l-15-37.47Zm54.68-19h7.39v59.64H1228Zm28.06,7.56a4.58,4.58,0,0,1-9.16,0,4.51,4.51,0,0,1,4.62-4.62A4.39,4.39,0,0,1,1256.05,419.35Zm-8.24,52.08V430.77h7.4v40.66Zm28.56-52.33v11.67H1287v5.63h-10.59v21.93c0,5,1.43,7.89,5.55,7.89a16.52,16.52,0,0,0,4.28-.5l.34,5.54a18.06,18.06,0,0,1-6.55,1c-3.45,0-6.22-1.09-8-3.11-2.1-2.18-2.86-5.79-2.86-10.58V436.4h-6.3v-5.63h6.3V421Zm27.81,0v11.67h10.58v5.63h-10.58v21.93c0,5,1.43,7.89,5.54,7.89a16.67,16.67,0,0,0,4.29-.5l.33,5.54a18,18,0,0,1-6.55,1c-3.44,0-6.22-1.09-8-3.11-2.1-2.18-2.86-5.79-2.86-10.58V436.4h-6.3v-5.63h6.3V421Zm18.9-7.31h7.39v59.64h-7.39ZM1347,452.45c.16,10,6.55,14.11,13.94,14.11a26.88,26.88,0,0,0,11.26-2.1l1.26,5.29a32.91,32.91,0,0,1-13.53,2.52c-12.51,0-20-8.23-20-20.5s7.22-21.92,19.07-21.92c13.27,0,16.8,11.68,16.8,19.15a29,29,0,0,1-.25,3.45Zm21.67-5.3c.08-4.7-1.93-12-10.25-12-7.48,0-10.75,6.89-11.34,12Z"/>
    <path id="friend" d="M910.68,464.78V492q-16.6,0-19.59,1.52t-3,8.7v5.58h22.58V535.7H897.93V679.8H844.27V535.7h-11V507.81h11q0-17.4,1.2-23.24a20,20,0,0,1,5.91-10.43q4.71-4.58,13.21-7T891,464.78Zm61.16,38.78-2.12,23.18q11.68-24.9,33.87-26.37v62q-14.75,0-21.65,4a16.72,16.72,0,0,0-8.5,11.09q-1.59,7.11-1.6,32.74V679.8H918.19V503.56Zm96.23-38.78v28h-55.25v-28Zm0,38.78V679.8h-55.25V503.56Zm138.06,91.24h-69.46v38.12q0,12,1.73,15.41c1.14,2.3,3.36,3.45,6.64,3.45q6.11,0,8.16-4.58t2.06-17.73V606.22h50.87v13q0,16.34-2.06,25.1t-9.63,18.73A46.82,46.82,0,0,1,1175.25,678q-11.62,5-29.15,5-17,0-30-4.91t-20.25-13.48a48.75,48.75,0,0,1-10-18.86q-2.79-10.29-2.79-30v-51.4q0-23.11,6.24-36.46t20.46-20.45q14.2-7.11,32.67-7.11,22.57,0,37.25,8.57t20.59,22.71q5.91,14.15,5.91,39.78Zm-53.79-28.68V553.23q0-13.68-1.46-17.66t-6-4q-5.58,0-6.9,3.39t-1.33,18.26v12.89Zm123.19-62.56-.93,16.24a40.12,40.12,0,0,1,14.28-14.57,38.23,38.23,0,0,1,19.45-4.86q13.82,0,22.58,6.51a29,29,0,0,1,11.29,16.4q2.52,9.9,2.52,33V679.8h-53.65v-122q0-18.19-1.2-22.18t-6.64-4q-5.71,0-7.17,4.59t-1.46,24.5V679.8h-53.66V503.56Zm207-38.78v215h-53.66V667a55.51,55.51,0,0,1-16.2,12,41.42,41.42,0,0,1-17.8,4,36.18,36.18,0,0,1-21.65-6.57q-9.17-6.58-11.75-15.21t-2.59-28.16V550.58q0-20.33,2.59-28.82t11.89-14.95q9.29-6.44,22.18-6.44a43.89,43.89,0,0,1,33.33,14.38v-50Zm-53.66,83.14q0-9.69-1.66-13t-6.57-3.32q-4.79,0-6.44,3t-1.66,13.35v86.33q0,10.75,1.59,14.14t6.11,3.39q5.18,0,6.9-3.79t1.73-18.52Z"/>
    <path id="rough" d="M700.15,91h33.47q33.46,0,45.32,2.58t19.31,13.2q7.47,10.62,7.47,33.86,0,21.23-5.28,28.53t-20.77,8.76q14,3.48,18.86,9.32t6,10.72q1.19,4.89,1.18,26.9v48H761.81V212.38q0-14.59-2.3-18.08t-12.08-3.48v82H700.15Zm47.28,31.11v40.43q8,0,11.18-2.19t3.2-14.21v-10q0-8.65-3.09-11.34T747.43,122.09Zm173.13,75.36q0,27.41-1.29,38.8a43.43,43.43,0,0,1-26.45,35.32q-11.57,5.06-27,5.05a68.52,68.52,0,0,1-26.22-4.77,43.7,43.7,0,0,1-27.12-35.1q-1.35-11.22-1.35-39.3V166.34q0-27.4,1.29-38.8a43.44,43.44,0,0,1,26.45-35.32q11.57-5.06,27-5.06a68.33,68.33,0,0,1,26.22,4.78A43.67,43.67,0,0,1,919.21,127q1.35,11.24,1.35,39.31ZM873.28,137.7q0-12.69-1.4-16.23t-5.79-3.54a6.46,6.46,0,0,0-5.67,2.87q-2,2.86-2,16.9v84.9q0,15.84,1.29,19.54t6,3.71q4.83,0,6.17-4.27t1.35-20.33ZM1034.17,91V212.5q0,20.66-1.35,29t-8,17.18a41.34,41.34,0,0,1-17.47,13.36q-10.83,4.55-25.54,4.55-16.29,0-28.75-5.39t-18.65-14a38.86,38.86,0,0,1-7.3-18.25q-1.12-9.6-1.12-40.37V91H973.3V227.32q0,11.91,1.29,15.22t5.22,3.31q4.5,0,5.79-3.65T986.89,225V91Zm115.29,66.94h-47.28V141.41q0-15.61-1.35-19.54c-.89-2.62-3-3.94-6.4-3.94-2.92,0-4.9,1.13-6,3.37s-1.57,8-1.57,17.3v87.26q0,12.24,1.57,16.12c1,2.58,3.14,3.87,6.29,3.87q5.16,0,7-4.38t1.85-17.07V202.84h-9.54V175.21h55.36V272.8h-29.71l-4.37-13a33.07,33.07,0,0,1-12.2,12.63,34.31,34.31,0,0,1-17.36,4.21,45.23,45.23,0,0,1-22.31-5.78q-10.4-5.79-15.79-14.32a45.15,45.15,0,0,1-6.74-17.91q-1.35-9.37-1.35-28.14v-54q0-26.06,2.81-37.85T1058.55,97q13.31-9.83,34.42-9.83,20.77,0,34.48,8.54T1145.31,116q4.15,11.73,4.15,34.08ZM1265,91V272.8H1217.7V196.44h-14.15V272.8h-47.28V91h47.28v65h14.15V91Zm52.85,58.62h-45.37q.22-23.91,4-34.92t16.57-19.26q12.73-8.26,32.51-8.26,14.26,0,24.93,4.5a41.48,41.48,0,0,1,17,12.52,54.34,54.34,0,0,1,9.21,17.35q2.91,9.31,2.92,29.2V173q0,15.16-2.81,24.37t-12.24,16.18a36.27,36.27,0,0,1-22.13,7q-16.5,0-24.59-12.92v19.54h-42.34v-50h41.33q.23,10.33,7.41,10.33c3.74,0,6.12-1.51,7.13-4.55s1.52-10.46,1.52-22.29V130.4q0-10-1.41-13.42c-.93-2.28-2.79-3.43-5.55-3.43q-5.18,0-6.63,4.55t-1.46,20.5Zm0,86.82V272.8h-42.34V236.42Z"/>
    <path id="ok" d="M529.37,556.47q0,62.67-3,88.73a99.49,99.49,0,0,1-18.5,47.65q-15.54,21.57-42,33.13t-61.64,11.56q-33.39,0-60-10.92t-42.76-32.75a98.43,98.43,0,0,1-19.27-47.51q-3.07-25.68-3.08-89.89V485.32q0-62.65,3-88.73a99.37,99.37,0,0,1,18.49-47.65q15.54-21.57,42-33.13t61.64-11.56q33.39,0,60,10.92T507,347.92a98.52,98.52,0,0,1,19.26,47.51q3.08,25.68,3.08,89.89ZM421.24,419.83q0-29-3.21-37.11t-13.23-8.09q-8.48,0-13,6.55t-4.49,38.65V614q0,36.21,3,44.69T404,667.16q11,0,14.13-9.76t3.08-46.48ZM801.13,313l-62,187.74L807,728.8H695.31L651.52,550.56V728.8H543.39V313H651.52V474.54L699.68,313Z"/>
    <path id="play" d="M622.67,272.41c-6.82,0-12.32.22-17.38.44v-8.69l9.13-.44v-.22c-6.49-4-10.34-10.23-10.34-18.92,0-12.87,10.89-22.55,27.06-22.55,19.14,0,28.6,11.66,28.6,24.2,0,7-3.08,13.2-8.36,16.39v.22h28.93v9.57Zm14.19-9.57a21.8,21.8,0,0,0,4-.44,14.94,14.94,0,0,0,11.33-14.52c0-10.23-8.36-16.17-20.57-16.17-10.67,0-19.8,5.61-19.8,15.84,0,6.6,4.73,12.76,12,14.63a15.7,15.7,0,0,0,4,.66Zm-56.43-53v-9.67h78.1v9.67Zm78.1-55.43-6.71.77v.33a19.83,19.83,0,0,1,7.92,16.28c0,10.78-7.59,16.28-15.29,16.28-12.87,0-19.91-11.44-19.8-32h-1.1c-4.4,0-12.32,1.21-12.32,12.1a26.53,26.53,0,0,0,4,13.86l-6.38,2.2a33,33,0,0,1-4.73-17.49c0-16.28,11.11-20.24,21.78-20.24h19.91a75,75,0,0,0,12.76-.88Zm-27.17,1.43c-.22,10.56,1.65,22.55,12,22.55,6.27,0,9.24-4.18,9.24-9.13a13.25,13.25,0,0,0-8.91-12.87,10.1,10.1,0,0,0-3.08-.55Zm-26.07-27.61,31.46-11.66c3.52-1.21,7.7-2.53,10.89-3.41v-.22c-3.19-1-7.26-2.09-11.11-3.41L605.29,99V88.72l38,14.52c18.26,6.93,27.61,11.66,33.33,18.26a26.23,26.23,0,0,1,6.27,11.88l-8.14,2.42a25.6,25.6,0,0,0-4.73-8.47,29.35,29.35,0,0,0-10.78-8.14,7,7,0,0,0-2.31-.77,8.44,8.44,0,0,0-2.53.66l-49.06,19.69Z"/>
    <path id="wannna" d="M290.74,223.43l6.52,25.1c1.43,5.5,2.76,10.6,3.68,15.7h.3c1.12-5,2.76-10.3,4.39-15.6l8.06-25.2h7.55l7.65,24.69c1.83,5.91,3.26,11.12,4.38,16.11h.31a147.6,147.6,0,0,1,3.77-16l7-24.79h8.88L337.35,272.8h-8.16l-7.55-23.56A165,165,0,0,1,317.26,233h-.21a145.61,145.61,0,0,1-4.48,16.32l-8,23.46h-8.16l-14.89-49.37Zm98.43,49.37-.72-6.22h-.3a18.39,18.39,0,0,1-15.1,7.34c-10,0-15.1-7-15.1-14.17,0-11.94,10.61-18.47,29.69-18.36v-1c0-4.08-1.13-11.43-11.22-11.43a24.67,24.67,0,0,0-12.86,3.67l-2-5.91a30.58,30.58,0,0,1,16.22-4.39c15.1,0,18.77,10.3,18.77,20.2V261a69.65,69.65,0,0,0,.82,11.83Zm-1.33-25.19c-9.79-.21-20.91,1.53-20.91,11.12,0,5.81,3.88,8.56,8.47,8.56A12.29,12.29,0,0,0,387.33,259a9.26,9.26,0,0,0,.51-2.85ZM411,236.79c0-5.1-.1-9.28-.4-13.36h8l.51,8.16h.21a18.15,18.15,0,0,1,16.32-9.28c6.83,0,17.44,4.08,17.44,21V272.8h-9V244.34c0-8-3-14.58-11.42-14.58A13.15,13.15,0,0,0,420,243.12V272.8h-9Zm56.61,0c0-5.1-.1-9.28-.41-13.36h8l.51,8.16h.2a18.16,18.16,0,0,1,16.33-9.28c6.83,0,17.44,4.08,17.44,21V272.8h-9V244.34c0-8-3-14.58-11.42-14.58a13.15,13.15,0,0,0-12.65,13.36V272.8h-9Zm83.95,36-.72-6.22h-.3a18.39,18.39,0,0,1-15.1,7.34c-10,0-15.09-7-15.09-14.17,0-11.94,10.6-18.47,29.68-18.36v-1c0-4.08-1.12-11.43-11.22-11.43A24.6,24.6,0,0,0,526,232.61l-2-5.91a30.54,30.54,0,0,1,16.21-4.39c15.1,0,18.77,10.3,18.77,20.2V261a69.65,69.65,0,0,0,.82,11.83Zm-1.33-25.19c-9.79-.21-20.91,1.53-20.91,11.12,0,5.81,3.88,8.56,8.47,8.56A12.29,12.29,0,0,0,549.71,259a9.26,9.26,0,0,0,.51-2.85Z"/>
    <path id="you" d="M110.43,223.43l10.81,29.18c1.12,3.26,2.35,7.14,3.16,10.09h.21c.92-2.95,1.94-6.73,3.16-10.3l9.79-29h9.49l-13.46,35.19c-6.43,16.94-10.82,25.61-16.94,30.91a24.31,24.31,0,0,1-11,5.82l-2.25-7.55a23.8,23.8,0,0,0,7.86-4.39,27.33,27.33,0,0,0,7.54-10,6.37,6.37,0,0,0,.72-2.14,8,8,0,0,0-.61-2.34l-18.26-45.5Zm88.44,24.28c0,18.26-12.65,26.21-24.59,26.21-13.36,0-23.66-9.79-23.66-25.39,0-16.53,10.81-26.22,24.48-26.22C189.28,222.31,198.87,232.61,198.87,247.71Zm-39.17.51c0,10.81,6.22,19,15,19,8.57,0,15-8.06,15-19.17,0-8.37-4.19-19-14.79-19S159.7,238.83,159.7,248.22Zm91.8,11.12c0,5.1.1,9.59.41,13.46h-8l-.51-8.06h-.2a18.58,18.58,0,0,1-16.33,9.18c-7.75,0-17-4.28-17-21.62V223.43h9v27.34c0,9.38,2.85,15.71,11,15.71a13,13,0,0,0,11.84-8.16,13.15,13.15,0,0,0,.81-4.59v-30.3h9Z"/>
  </g>
  <g id="intro">
    <path id="scarface" d="M997,311.83c30.5,42,36.08,93.75,22.32,135-3.72,11.53-13.4,30.87-29.76,32-10.42,1.12-20.46-6.7-28.27-19.72l-10.79,19.72V371.73l9.3,47.24c7.44,36.83,13.76,45,20.09,49.85,3.34,2.6,7.81,4.46,12.27,3,7.81-3,11.16-12.27,13.76-22.69,7.82-33.48,4.1-59.52-29-113.09l-6.32-10.78c-25.67-38-29.76-87.42-17.86-117.93,4.46-11.53,12.28-29.76,30.88-29.76,7.43,0,12.64,6,18.59,17.86l9.68-16.74v90.77l-9.68-37.2c-6-23.44-10.41-38.69-17.11-45-1.48-1.86-4.83-3.72-10-.38-4.09,2.24-7.44,7.44-9.67,17.86-6.7,27.9-2.23,61,24.92,98.21Zm118.66,61v11.53c0,22.32-4.09,85.56-26,85.56-19.34,0-19-75.14-19-136.89,0-72.91-1.12-147.68,19-147.68,18.23,0,19,28.27,31.62,85.18v-93l-8.19,17.86c-4.83-14.51-12.64-17.86-22.31-17.86-35.34,0-45.76,85.19-45.76,154.38,0,63.24,12.28,146.94,44.27,146.94,37.57,0,35.71-93.37,35.71-106Zm114.58,93.74,13,10.42h-53.2l13.4-10.42-12.65-89.65h-25.67l-12.65,89.65,13,10.42h-36.45l13.39-10.42,40.17-288.29h7.44Zm-40.55-98.2-11.53-91.14-11.53,91.14Zm161.44,98.2,13,10.42h-36.45l-13.77-119.41c-3.72-33.11-8.55-35.34-21.57-35.34V466.58l13,10.42h-50.22l13-10.42V189.82l-13-10.42h32.73c36.83,0,55.8,21.58,55.8,70.31,0,31.62-14.13,62.5-32,68.45,21.58,6.32,24.18,24.92,27.53,51.33Zm-31.24-216.5c0-36.45,3-60.26-27.53-60.26V311.46C1321,311.46,1319.9,284.31,1319.9,250.08Zm95.22,61.38V189.82h31.25l17.86,81.47V179.4h-86.31l13,10.42V466.58l-13,10.42h50.22l-13-10.42V320h18.23l14.88,61.75V261.24l-14.88,50.22Zm141.74,155.12,13,10.42h-53.2l13.39-10.42-12.65-89.65h-25.66l-12.65,89.65,13,10.42h-36.46l13.4-10.42,40.17-288.29h7.44Zm-40.55-98.2-11.53-91.14-11.53,91.14Zm130.94,4.46v11.53c0,22.32-4.09,85.56-26,85.56-19.34,0-19-75.14-19-136.89,0-72.91-1.12-147.68,19-147.68,18.23,0,19,28.27,31.62,85.18v-93l-8.18,17.86c-4.84-14.51-12.65-17.86-22.32-17.86-35.34,0-45.76,85.19-45.76,154.38,0,63.24,12.28,146.94,44.27,146.94,37.57,0,35.71-93.37,35.71-106Zm91.88,93.74h-29.75V320h18.22l14.88,61.75V261.24l-14.88,50.22h-18.22V189.82h31.24l17.86,81.47V179.4h-86.3l13,10.42V466.58l-13,10.42h88.53V372.47Z" style="fill: #f40f0f"/>
    <path id="kinetic" d="M1096.35,675h-2V605h2v48.51l34.79-28.91H1134l-23.13,19.21,24.8,31.16H1133l-23.62-29.79-13,10.78Zm41.55-60.07V605h2v9.9Zm0,60.07V624.63h2V675Zm14.7-50.37v12.44h.2a17.79,17.79,0,0,1,2.2-5.39,17.19,17.19,0,0,1,3.82-4.31,17.38,17.38,0,0,1,5.34-2.89,22.66,22.66,0,0,1,14,.15,15.41,15.41,0,0,1,9.41,9.16,21.3,21.3,0,0,1,1.32,7.79V675h-2V641.88a19.86,19.86,0,0,0-1.27-7.5,14,14,0,0,0-3.48-5.1,13.83,13.83,0,0,0-5.1-2.94,19.89,19.89,0,0,0-6.12-.93,17.42,17.42,0,0,0-7.94,1.72,16.94,16.94,0,0,0-5.74,4.6,20.22,20.22,0,0,0-3.47,6.72,26.9,26.9,0,0,0-1.18,8V675h-2V624.63Zm47.28,35a22.58,22.58,0,0,0,3.48,7.6,16.59,16.59,0,0,0,6.08,5.09,20.1,20.1,0,0,0,9.11,1.87q8,0,13.19-4.17t6.51-12.49h2q-1.08,8.82-7,13.67a22,22,0,0,1-14.5,4.85,22.67,22.67,0,0,1-10-1.86,17.81,17.81,0,0,1-6.82-5.54,24.54,24.54,0,0,1-3.92-8.43,40.91,40.91,0,0,1-1.27-10.44,31.33,31.33,0,0,1,1.86-11.17,26.32,26.32,0,0,1,4.9-8.28,20.48,20.48,0,0,1,7.06-5.14,20.22,20.22,0,0,1,8.23-1.77,21.32,21.32,0,0,1,10.14,2.26,19.9,19.9,0,0,1,7,6,25,25,0,0,1,3.92,8.53,34.81,34.81,0,0,1,1,10h-42.14A40.61,40.61,0,0,0,1199.88,659.66Zm37.69-20.19a21.92,21.92,0,0,0-3.78-7.3,17.79,17.79,0,0,0-6.22-4.95,19.59,19.59,0,0,0-8.62-1.81,19.07,19.07,0,0,0-7.7,1.57,18.27,18.27,0,0,0-6.27,4.56,23.44,23.44,0,0,0-4.36,7.2,30.46,30.46,0,0,0-2,9.51h40.18A30.21,30.21,0,0,0,1237.57,639.47ZM1254,665.2a12,12,0,0,0,.64,4.41,5.58,5.58,0,0,0,1.61,2.35,4.25,4.25,0,0,0,2.16.93,18.54,18.54,0,0,0,2.35.15c1,0,1.86,0,2.65,0a5.5,5.5,0,0,0,1.66-.24v2l-1.71.19a30.12,30.12,0,0,1-3.09.1,8.77,8.77,0,0,1-5.83-2c-1.6-1.34-2.4-3.8-2.4-7.4v-39h-9.21v-2h9.21V608.75h2v15.88h11.37v2H1254Zm18.23-50.27V605h2v9.9Zm0,60.07V624.63h2V675Zm51.25-9.55a18.16,18.16,0,0,1-4.36,5.73,19.12,19.12,0,0,1-6.27,3.62,23.4,23.4,0,0,1-7.89,1.28,21.74,21.74,0,0,1-9.56-2,20.55,20.55,0,0,1-7-5.44,23.8,23.8,0,0,1-4.32-8,31.5,31.5,0,0,1-1.47-9.75,37.44,37.44,0,0,1,1.43-10.43,25.85,25.85,0,0,1,4.31-8.73,21,21,0,0,1,7.35-6,22.74,22.74,0,0,1,10.43-2.26,21.24,21.24,0,0,1,6.77,1.08,18.29,18.29,0,0,1,5.78,3.14,17.2,17.2,0,0,1,4.26,5.14,19.45,19.45,0,0,1,2.21,7.11h-2a18.54,18.54,0,0,0-2.16-6.42,16.2,16.2,0,0,0-3.82-4.51,15.33,15.33,0,0,0-5.1-2.7,20.31,20.31,0,0,0-6-.88,20.76,20.76,0,0,0-10.14,2.3,19,19,0,0,0-6.66,6,25.27,25.27,0,0,0-3.63,8.23,37.37,37.37,0,0,0-1.13,9,29.34,29.34,0,0,0,1.33,8.82,23.05,23.05,0,0,0,3.87,7.45,18.44,18.44,0,0,0,6.37,5.14,19.41,19.41,0,0,0,8.82,1.92,21.08,21.08,0,0,0,7-1.13,17.69,17.69,0,0,0,5.73-3.28,17.05,17.05,0,0,0,5.93-12h2A21.6,21.6,0,0,1,1323.51,665.45Z"/>
    <path id="experiment" d="M1116,749.59a35.32,35.32,0,0,0,5.54,12.09,26.29,26.29,0,0,0,9.67,8.11,32.29,32.29,0,0,0,14.51,3q12.63,0,21-6.63T1177,746.23h3.12q-1.71,14-11.07,21.76T1146,775.72a35.93,35.93,0,0,1-16-3,28.11,28.11,0,0,1-10.84-8.81,38.89,38.89,0,0,1-6.24-13.42,65.28,65.28,0,0,1-2-16.61,50,50,0,0,1,3-17.79,41.73,41.73,0,0,1,7.8-13.18,32.87,32.87,0,0,1,24.34-11,34.16,34.16,0,0,1,16.15,3.59,31.89,31.89,0,0,1,11.07,9.52,39.61,39.61,0,0,1,6.24,13.57,55.51,55.51,0,0,1,1.64,15.91H1114A64.7,64.7,0,0,0,1116,749.59Zm60-32.14a34.74,34.74,0,0,0-6-11.62A28.5,28.5,0,0,0,1160,698a31.06,31.06,0,0,0-13.73-2.89,30.18,30.18,0,0,0-12.24,2.5,29,29,0,0,0-10,7.25,37.7,37.7,0,0,0-6.94,11.47,48.15,48.15,0,0,0-3.12,15.13h64A47.56,47.56,0,0,0,1176,717.45ZM1248,693.82,1218.7,732.5l32.13,41.5h-3.9l-30.26-39.16L1186.56,774h-3.74l32-41.5-29.18-38.68h4.06l27,36.34,27.61-36.34Zm9,107.64V693.82h3.12v22.46h.31a35.46,35.46,0,0,1,4.53-9.75,34,34,0,0,1,7-7.72,29.9,29.9,0,0,1,9.28-5.07,34.47,34.47,0,0,1,11.31-1.8,31.8,31.8,0,0,1,14.27,3.12,31.48,31.48,0,0,1,10.77,8.74,40,40,0,0,1,6.78,13.26,56.82,56.82,0,0,1,2.34,16.69,56.23,56.23,0,0,1-2.26,16.07,42.5,42.5,0,0,1-6.55,13.42,30.54,30.54,0,0,1-25.35,12.48q-12.8,0-21.06-6.63a32.09,32.09,0,0,1-11.08-17.55h-.31v49.92Zm49.69-32.22a30,30,0,0,0,9.59-9,39.88,39.88,0,0,0,5.54-12.48,55.8,55.8,0,0,0,1.79-14,54.28,54.28,0,0,0-2-14.74,39.39,39.39,0,0,0-5.77-12.32,27.79,27.79,0,0,0-9.67-8.51,28.7,28.7,0,0,0-13.65-3.12,29.78,29.78,0,0,0-13.73,3.12,30.53,30.53,0,0,0-10.22,8.43,38.28,38.28,0,0,0-6.31,12.32,49.48,49.48,0,0,0-2.19,14.82q0,18.88,8.89,28.94t23.56,10.06A27,27,0,0,0,1306.76,769.24Zm34.47-19.65a35.51,35.51,0,0,0,5.54,12.09,26.37,26.37,0,0,0,9.67,8.11,32.29,32.29,0,0,0,14.51,3q12.63,0,21-6.63t10.38-19.89h3.12q-1.73,14-11.08,21.76t-23.09,7.73a35.93,35.93,0,0,1-16-3,28.11,28.11,0,0,1-10.84-8.81,38.89,38.89,0,0,1-6.24-13.42,65.28,65.28,0,0,1-2-16.61,49.78,49.78,0,0,1,3-17.79,41.36,41.36,0,0,1,7.8-13.18,32.83,32.83,0,0,1,24.33-11,34.16,34.16,0,0,1,16.15,3.59,31.89,31.89,0,0,1,11.07,9.52,39.61,39.61,0,0,1,6.24,13.57,55.51,55.51,0,0,1,1.64,15.91h-67.08A65.24,65.24,0,0,0,1341.23,749.59Zm60-32.14a34.74,34.74,0,0,0-6-11.62,28.41,28.41,0,0,0-9.91-7.88,31.06,31.06,0,0,0-13.73-2.89,30.21,30.21,0,0,0-12.24,2.5,29,29,0,0,0-10,7.25,37.7,37.7,0,0,0-6.94,11.47,48.15,48.15,0,0,0-3.12,15.13h64A47.56,47.56,0,0,0,1401.21,717.45ZM1418.84,774V693.82H1422v19.81h.31a31,31,0,0,1,3.44-8.5,23.76,23.76,0,0,1,6.24-7,30.63,30.63,0,0,1,9.28-4.68,38.85,38.85,0,0,1,12.56-1.56v3.12a30.09,30.09,0,0,0-14.28,2.27,27,27,0,0,0-9.9,7.48,31.32,31.32,0,0,0-5.78,11A44.58,44.58,0,0,0,1422,728.6V774Zm40.4-95.63V662.62h3.12v15.75Zm0,95.63V693.82h3.12V774Zm23.4-80.18v19.81h.31a29.73,29.73,0,0,1,3.44-8.58,28.19,28.19,0,0,1,5.77-6.87,26.39,26.39,0,0,1,7.56-4.6,23.8,23.8,0,0,1,8.82-1.64q9.36-.3,15.68,4.76a24.14,24.14,0,0,1,8.34,14h.31a24.78,24.78,0,0,1,9.21-13.57,26.27,26.27,0,0,1,16.22-5.15,29.54,29.54,0,0,1,12.17,2.19,20.31,20.31,0,0,1,7.8,6,23.37,23.37,0,0,1,4.21,9.21,53,53,0,0,1,1.25,11.93V774h-3.12V721.27a53,53,0,0,0-1-10.76,20.82,20.82,0,0,0-3.59-8.27,16.71,16.71,0,0,0-6.87-5.3,27.16,27.16,0,0,0-10.84-1.88,23.53,23.53,0,0,0-18.41,8.43,27.69,27.69,0,0,0-5,9,33.19,33.19,0,0,0-1.71,10.68V774h-3.12V722.52a62.89,62.89,0,0,0-.86-10.61,23.85,23.85,0,0,0-3.2-8.73,16.46,16.46,0,0,0-6.55-5.93,23.66,23.66,0,0,0-10.92-2.19,21.63,21.63,0,0,0-10.77,2.73,25.85,25.85,0,0,0-8.19,7.34,34.61,34.61,0,0,0-5.14,10.68,44.87,44.87,0,0,0-1.8,12.79V774h-3.12V693.82Zm118.64,55.77a35.32,35.32,0,0,0,5.54,12.09,26.29,26.29,0,0,0,9.67,8.11,32.29,32.29,0,0,0,14.51,3q12.63,0,21-6.63t10.37-19.89h3.12q-1.71,14-11.07,21.76t-23.09,7.73a35.93,35.93,0,0,1-16-3,28.11,28.11,0,0,1-10.84-8.81,38.89,38.89,0,0,1-6.24-13.42,65.28,65.28,0,0,1-2-16.61,50,50,0,0,1,3-17.79,41.73,41.73,0,0,1,7.8-13.18,32.87,32.87,0,0,1,24.34-11,34.16,34.16,0,0,1,16.15,3.59,31.89,31.89,0,0,1,11.07,9.52,39.61,39.61,0,0,1,6.24,13.57,55.51,55.51,0,0,1,1.64,15.91h-67.08A64.7,64.7,0,0,0,1601.28,749.59Zm60-32.14a34.74,34.74,0,0,0-6-11.62,28.5,28.5,0,0,0-9.91-7.88,31.06,31.06,0,0,0-13.73-2.89,30.18,30.18,0,0,0-12.24,2.5,29,29,0,0,0-10,7.25,37.7,37.7,0,0,0-6.94,11.47,48.15,48.15,0,0,0-3.12,15.13h64A47.56,47.56,0,0,0,1661.26,717.45ZM1682,693.82v19.81h.31a28.51,28.51,0,0,1,3.51-8.58,27.1,27.1,0,0,1,14.59-11.47,33.43,33.43,0,0,1,10.76-1.64,33.78,33.78,0,0,1,11.47,1.88,24.37,24.37,0,0,1,15,14.58,33.74,33.74,0,0,1,2.11,12.4V774h-3.12V721.27a31.28,31.28,0,0,0-2-11.93,22.19,22.19,0,0,0-5.54-8.11,21.86,21.86,0,0,0-8.11-4.68,31.58,31.58,0,0,0-9.75-1.49,28,28,0,0,0-12.63,2.73,26.94,26.94,0,0,0-9.13,7.34,32.28,32.28,0,0,0-5.54,10.68A43.2,43.2,0,0,0,1682,728.6V774h-3.12V693.82Zm83.46,64.58a19.39,19.39,0,0,0,1,7,9.05,9.05,0,0,0,2.58,3.74,6.72,6.72,0,0,0,3.43,1.49,31.42,31.42,0,0,0,3.74.23c1.56,0,3,0,4.22-.08a8.8,8.8,0,0,0,2.65-.39v3.12l-2.73.31a48.15,48.15,0,0,1-4.92.16,14,14,0,0,1-9.28-3.2q-3.83-3.19-3.82-11.78V696.94h-14.66v-3.12h14.66V668.54h3.12v25.28h18.1v3.12h-18.1Z"/>
    <path id="type" d="M1320.68,571.78v-6.3h90.8v6.3h-41.83V684h-7.31V571.78Zm182.1-6.3h8.13l-47.64,68.89V684H1456V634.37l-47.31-68.89h8.3l42.83,62.74Zm15.1,0h50.46a59.44,59.44,0,0,1,11,1.16,29.74,29.74,0,0,1,11.29,4.73,27.63,27.63,0,0,1,8.72,10.13q3.48,6.56,3.48,17.18,0,15.6-9.63,24.07t-27.55,8.46h-40.51V684h-7.3Zm7.3,59.42h41.67a34.11,34.11,0,0,0,13.53-2.4,24.47,24.47,0,0,0,8.88-6.23,23.85,23.85,0,0,0,4.81-8.46,30.14,30.14,0,0,0,1.5-9.3,37.54,37.54,0,0,0-1-7.89,23.67,23.67,0,0,0-12.36-15.93q-5.4-2.91-14.36-2.91h-42.67Zm90.8-59.42h79.68v6.3h-72.37v47.48h68.06v6.31h-68.06v52.12h73.2V684H1616Z"/>
  </g>
</svg>
